<svg width="1197" height="189" viewBox="0 0 1197 189" fill="none" xmlns="http://www.w3.org/2000/svg">
<g filter="url(#filter0_b_2_9)">
<mask id="path-1-outside-1_2_9" maskUnits="userSpaceOnUse" x="0.75" y="0.5" width="1196" height="189" fill="black">
<rect fill="white" x="0.75" y="0.5" width="1196" height="189"/>
<path d="M61.5 187L1.75 12H10.75L68.25 181.25H63.75L123 12H131.25L190.25 181.25H186L243.75 12H252.25L192.5 187H184L126 21H128L70.25 187H61.5Z"/>
<path d="M328.051 187.75C315.217 187.75 303.884 185 294.051 179.5C284.217 173.833 276.467 166 270.801 156C265.134 146 262.301 134.667 262.301 122C262.301 109.167 264.884 97.8334 270.051 88C275.384 78.1667 282.634 70.4167 291.801 64.75C301.134 59.0833 311.634 56.25 323.301 56.25C334.801 56.25 345.134 59 354.301 64.5C363.634 70 370.884 77.6667 376.051 87.5C381.384 97.1667 384.051 108.333 384.051 121C384.051 121.333 384.051 121.75 384.051 122.25C384.051 122.583 384.051 122.917 384.051 123.25H267.801V116.5H379.551L376.301 120.5C376.301 109.667 373.967 100 369.301 91.5C364.801 82.8334 358.551 76.0833 350.551 71.25C342.551 66.25 333.467 63.75 323.301 63.75C313.134 63.75 304.051 66.25 296.051 71.25C288.051 76.0833 281.717 82.8334 277.051 91.5C272.551 100 270.301 109.75 270.301 120.75V122.25C270.301 133.583 272.801 143.667 277.801 152.5C282.801 161.167 289.634 168 298.301 173C306.967 177.833 316.884 180.25 328.051 180.25C336.551 180.25 344.551 178.667 352.051 175.5C359.717 172.333 366.051 167.5 371.051 161L376.301 166.5C370.467 173.5 363.301 178.833 354.801 182.5C346.467 186 337.551 187.75 328.051 187.75Z"/>
<path d="M424.756 187V1.5H433.006V187H424.756Z"/>
<path d="M538.227 187.75C525.893 187.75 514.81 185 504.977 179.5C495.31 173.833 487.643 166.083 481.977 156.25C476.477 146.25 473.727 134.833 473.727 122C473.727 109.167 476.477 97.8334 481.977 88C487.643 78 495.31 70.25 504.977 64.75C514.81 59.0833 525.893 56.25 538.227 56.25C548.06 56.25 557.143 58.1667 565.477 62C573.81 65.6667 580.727 71.1667 586.227 78.5L579.977 83.75C575.143 76.9167 569.06 71.9167 561.727 68.75C554.56 65.5833 546.727 64 538.227 64C527.56 64 517.977 66.4167 509.477 71.25C500.977 76.0833 494.227 82.9167 489.227 91.75C484.393 100.417 481.977 110.5 481.977 122C481.977 133.5 484.393 143.667 489.227 152.5C494.227 161.167 500.977 168 509.477 173C517.977 177.833 527.56 180.25 538.227 180.25C546.727 180.25 554.56 178.667 561.727 175.5C569.06 172.167 575.143 167.167 579.977 160.5L586.227 165.5C580.727 173 573.81 178.583 565.477 182.25C557.143 185.917 548.06 187.75 538.227 187.75Z"/>
<path d="M672.242 187.75C660.076 187.75 649.159 185 639.492 179.5C629.992 173.833 622.409 166 616.742 156C611.242 146 608.492 134.667 608.492 122C608.492 109.167 611.242 97.8334 616.742 88C622.409 78.1667 629.992 70.4167 639.492 64.75C649.159 59.0833 660.076 56.25 672.242 56.25C684.409 56.25 695.326 59.0833 704.992 64.75C714.659 70.4167 722.242 78.1667 727.742 88C733.242 97.8334 735.992 109.167 735.992 122C735.992 134.667 733.242 146 727.742 156C722.242 166 714.659 173.833 704.992 179.5C695.326 185 684.409 187.75 672.242 187.75ZM672.242 180.25C682.909 180.25 692.409 177.833 700.742 173C709.242 168 715.826 161.083 720.492 152.25C725.326 143.417 727.742 133.333 727.742 122C727.742 110.5 725.326 100.417 720.492 91.75C715.826 82.9167 709.242 76.0833 700.742 71.25C692.409 66.4167 682.909 64 672.242 64C661.742 64 652.326 66.4167 643.992 71.25C635.659 76.0833 628.992 82.9167 623.992 91.75C619.159 100.417 616.742 110.5 616.742 122C616.742 133.333 619.159 143.417 623.992 152.25C628.992 161.083 635.659 168 643.992 173C652.326 177.833 661.742 180.25 672.242 180.25Z"/>
<path d="M938.307 56.25C948.807 56.25 957.807 58.3333 965.307 62.5C972.973 66.6667 978.89 72.8333 983.057 81C987.223 89 989.307 98.9167 989.307 110.75V187H981.057V111.25C981.057 95.75 977.223 84 969.557 76C962.057 68 951.473 64 937.807 64C927.473 64 918.473 66.1667 910.807 70.5C903.14 74.8333 897.223 81 893.057 89C889.057 97 887.057 106.333 887.057 117V187H878.807V111.25C878.807 95.75 875.057 84 867.557 76C860.057 68 849.473 64 835.807 64C825.307 64 816.223 66.1667 808.557 70.5C801.057 74.8333 795.223 81 791.057 89C787.057 97 785.057 106.333 785.057 117V187H776.807V57.25H784.807V93.5L783.807 91.25C787.64 80.5833 794.057 72.0833 803.057 65.75C812.057 59.4167 823.14 56.25 836.307 56.25C849.64 56.25 860.64 59.5834 869.307 66.25C878.14 72.9167 883.64 82.9167 885.807 96.25L883.557 95.25C886.89 83.75 893.307 74.4167 902.807 67.25C912.307 59.9167 924.14 56.25 938.307 56.25Z"/>
<path d="M1094.41 187.75C1081.57 187.75 1070.24 185 1060.41 179.5C1050.57 173.833 1042.82 166 1037.16 156C1031.49 146 1028.66 134.667 1028.66 122C1028.66 109.167 1031.24 97.8334 1036.41 88C1041.74 78.1667 1048.99 70.4167 1058.16 64.75C1067.49 59.0833 1077.99 56.25 1089.66 56.25C1101.16 56.25 1111.49 59 1120.66 64.5C1129.99 70 1137.24 77.6667 1142.41 87.5C1147.74 97.1667 1150.41 108.333 1150.41 121C1150.41 121.333 1150.41 121.75 1150.41 122.25C1150.41 122.583 1150.41 122.917 1150.41 123.25H1034.16V116.5H1145.91L1142.66 120.5C1142.66 109.667 1140.32 100 1135.66 91.5C1131.16 82.8334 1124.91 76.0833 1116.91 71.25C1108.91 66.25 1099.82 63.75 1089.66 63.75C1079.49 63.75 1070.41 66.25 1062.41 71.25C1054.41 76.0833 1048.07 82.8334 1043.41 91.5C1038.91 100 1036.66 109.75 1036.66 120.75V122.25C1036.66 133.583 1039.16 143.667 1044.16 152.5C1049.16 161.167 1055.99 168 1064.66 173C1073.32 177.833 1083.24 180.25 1094.41 180.25C1102.91 180.25 1110.91 178.667 1118.41 175.5C1126.07 172.333 1132.41 167.5 1137.41 161L1142.66 166.5C1136.82 173.5 1129.66 178.833 1121.16 182.5C1112.82 186 1103.91 187.75 1094.41 187.75Z"/>
<path d="M1187.11 187.75C1184.95 187.75 1183.03 187 1181.36 185.5C1179.7 183.833 1178.86 181.833 1178.86 179.5C1178.86 177.167 1179.7 175.25 1181.36 173.75C1183.03 172.083 1184.95 171.25 1187.11 171.25C1189.45 171.25 1191.36 172.083 1192.86 173.75C1194.53 175.25 1195.36 177.167 1195.36 179.5C1195.36 181.833 1194.53 183.833 1192.86 185.5C1191.36 187 1189.45 187.75 1187.11 187.75Z"/>
</mask>
<path d="M61.5 187L1.75 12H10.75L68.25 181.25H63.75L123 12H131.25L190.25 181.25H186L243.75 12H252.25L192.5 187H184L126 21H128L70.25 187H61.5Z" stroke="#D1D1D1" stroke-width="2" stroke-linejoin="round" mask="url(#path-1-outside-1_2_9)"/>
<path d="M328.051 187.75C315.217 187.75 303.884 185 294.051 179.5C284.217 173.833 276.467 166 270.801 156C265.134 146 262.301 134.667 262.301 122C262.301 109.167 264.884 97.8334 270.051 88C275.384 78.1667 282.634 70.4167 291.801 64.75C301.134 59.0833 311.634 56.25 323.301 56.25C334.801 56.25 345.134 59 354.301 64.5C363.634 70 370.884 77.6667 376.051 87.5C381.384 97.1667 384.051 108.333 384.051 121C384.051 121.333 384.051 121.75 384.051 122.25C384.051 122.583 384.051 122.917 384.051 123.25H267.801V116.5H379.551L376.301 120.5C376.301 109.667 373.967 100 369.301 91.5C364.801 82.8334 358.551 76.0833 350.551 71.25C342.551 66.25 333.467 63.75 323.301 63.75C313.134 63.75 304.051 66.25 296.051 71.25C288.051 76.0833 281.717 82.8334 277.051 91.5C272.551 100 270.301 109.75 270.301 120.75V122.25C270.301 133.583 272.801 143.667 277.801 152.5C282.801 161.167 289.634 168 298.301 173C306.967 177.833 316.884 180.25 328.051 180.25C336.551 180.25 344.551 178.667 352.051 175.5C359.717 172.333 366.051 167.5 371.051 161L376.301 166.5C370.467 173.5 363.301 178.833 354.801 182.5C346.467 186 337.551 187.75 328.051 187.75Z" stroke="#D1D1D1" stroke-width="2" stroke-linejoin="round" mask="url(#path-1-outside-1_2_9)"/>
<path d="M424.756 187V1.5H433.006V187H424.756Z" stroke="#D1D1D1" stroke-width="2" stroke-linejoin="round" mask="url(#path-1-outside-1_2_9)"/>
<path d="M538.227 187.75C525.893 187.75 514.81 185 504.977 179.5C495.31 173.833 487.643 166.083 481.977 156.25C476.477 146.25 473.727 134.833 473.727 122C473.727 109.167 476.477 97.8334 481.977 88C487.643 78 495.31 70.25 504.977 64.75C514.81 59.0833 525.893 56.25 538.227 56.25C548.06 56.25 557.143 58.1667 565.477 62C573.81 65.6667 580.727 71.1667 586.227 78.5L579.977 83.75C575.143 76.9167 569.06 71.9167 561.727 68.75C554.56 65.5833 546.727 64 538.227 64C527.56 64 517.977 66.4167 509.477 71.25C500.977 76.0833 494.227 82.9167 489.227 91.75C484.393 100.417 481.977 110.5 481.977 122C481.977 133.5 484.393 143.667 489.227 152.5C494.227 161.167 500.977 168 509.477 173C517.977 177.833 527.56 180.25 538.227 180.25C546.727 180.25 554.56 178.667 561.727 175.5C569.06 172.167 575.143 167.167 579.977 160.5L586.227 165.5C580.727 173 573.81 178.583 565.477 182.25C557.143 185.917 548.06 187.75 538.227 187.75Z" stroke="#D1D1D1" stroke-width="2" stroke-linejoin="round" mask="url(#path-1-outside-1_2_9)"/>
<path d="M672.242 187.75C660.076 187.75 649.159 185 639.492 179.5C629.992 173.833 622.409 166 616.742 156C611.242 146 608.492 134.667 608.492 122C608.492 109.167 611.242 97.8334 616.742 88C622.409 78.1667 629.992 70.4167 639.492 64.75C649.159 59.0833 660.076 56.25 672.242 56.25C684.409 56.25 695.326 59.0833 704.992 64.75C714.659 70.4167 722.242 78.1667 727.742 88C733.242 97.8334 735.992 109.167 735.992 122C735.992 134.667 733.242 146 727.742 156C722.242 166 714.659 173.833 704.992 179.5C695.326 185 684.409 187.75 672.242 187.75ZM672.242 180.25C682.909 180.25 692.409 177.833 700.742 173C709.242 168 715.826 161.083 720.492 152.25C725.326 143.417 727.742 133.333 727.742 122C727.742 110.5 725.326 100.417 720.492 91.75C715.826 82.9167 709.242 76.0833 700.742 71.25C692.409 66.4167 682.909 64 672.242 64C661.742 64 652.326 66.4167 643.992 71.25C635.659 76.0833 628.992 82.9167 623.992 91.75C619.159 100.417 616.742 110.5 616.742 122C616.742 133.333 619.159 143.417 623.992 152.25C628.992 161.083 635.659 168 643.992 173C652.326 177.833 661.742 180.25 672.242 180.25Z" stroke="#D1D1D1" stroke-width="2" stroke-linejoin="round" mask="url(#path-1-outside-1_2_9)"/>
<path d="M938.307 56.25C948.807 56.25 957.807 58.3333 965.307 62.5C972.973 66.6667 978.89 72.8333 983.057 81C987.223 89 989.307 98.9167 989.307 110.75V187H981.057V111.25C981.057 95.75 977.223 84 969.557 76C962.057 68 951.473 64 937.807 64C927.473 64 918.473 66.1667 910.807 70.5C903.14 74.8333 897.223 81 893.057 89C889.057 97 887.057 106.333 887.057 117V187H878.807V111.25C878.807 95.75 875.057 84 867.557 76C860.057 68 849.473 64 835.807 64C825.307 64 816.223 66.1667 808.557 70.5C801.057 74.8333 795.223 81 791.057 89C787.057 97 785.057 106.333 785.057 117V187H776.807V57.25H784.807V93.5L783.807 91.25C787.64 80.5833 794.057 72.0833 803.057 65.75C812.057 59.4167 823.14 56.25 836.307 56.25C849.64 56.25 860.64 59.5834 869.307 66.25C878.14 72.9167 883.64 82.9167 885.807 96.25L883.557 95.25C886.89 83.75 893.307 74.4167 902.807 67.25C912.307 59.9167 924.14 56.25 938.307 56.25Z" stroke="#D1D1D1" stroke-width="2" stroke-linejoin="round" mask="url(#path-1-outside-1_2_9)"/>
<path d="M1094.41 187.75C1081.57 187.75 1070.24 185 1060.41 179.5C1050.57 173.833 1042.82 166 1037.16 156C1031.49 146 1028.66 134.667 1028.66 122C1028.66 109.167 1031.24 97.8334 1036.41 88C1041.74 78.1667 1048.99 70.4167 1058.16 64.75C1067.49 59.0833 1077.99 56.25 1089.66 56.25C1101.16 56.25 1111.49 59 1120.66 64.5C1129.99 70 1137.24 77.6667 1142.41 87.5C1147.74 97.1667 1150.41 108.333 1150.41 121C1150.41 121.333 1150.41 121.75 1150.41 122.25C1150.41 122.583 1150.41 122.917 1150.41 123.25H1034.16V116.5H1145.91L1142.66 120.5C1142.66 109.667 1140.32 100 1135.66 91.5C1131.16 82.8334 1124.91 76.0833 1116.91 71.25C1108.91 66.25 1099.82 63.75 1089.66 63.75C1079.49 63.75 1070.41 66.25 1062.41 71.25C1054.41 76.0833 1048.07 82.8334 1043.41 91.5C1038.91 100 1036.66 109.75 1036.66 120.75V122.25C1036.66 133.583 1039.16 143.667 1044.16 152.5C1049.16 161.167 1055.99 168 1064.66 173C1073.32 177.833 1083.24 180.25 1094.41 180.25C1102.91 180.25 1110.91 178.667 1118.41 175.5C1126.07 172.333 1132.41 167.5 1137.41 161L1142.66 166.5C1136.82 173.5 1129.66 178.833 1121.16 182.5C1112.82 186 1103.91 187.75 1094.41 187.75Z" stroke="#D1D1D1" stroke-width="2" stroke-linejoin="round" mask="url(#path-1-outside-1_2_9)"/>
<path d="M1187.11 187.75C1184.95 187.75 1183.03 187 1181.36 185.5C1179.7 183.833 1178.86 181.833 1178.86 179.5C1178.86 177.167 1179.7 175.25 1181.36 173.75C1183.03 172.083 1184.95 171.25 1187.11 171.25C1189.45 171.25 1191.36 172.083 1192.86 173.75C1194.53 175.25 1195.36 177.167 1195.36 179.5C1195.36 181.833 1194.53 183.833 1192.86 185.5C1191.36 187 1189.45 187.75 1187.11 187.75Z" stroke="#D1D1D1" stroke-width="2" stroke-linejoin="round" mask="url(#path-1-outside-1_2_9)"/>
</g>
<defs>
<filter id="filter0_b_2_9" x="-3.25" y="-3.5" width="1203.61" height="196.25" filterUnits="userSpaceOnUse" color-interpolation-filters="sRGB">
<feFlood flood-opacity="0" result="BackgroundImageFix"/>
<feGaussianBlur in="BackgroundImageFix" stdDeviation="2"/>
<feComposite in2="SourceAlpha" operator="in" result="effect1_backgroundBlur_2_9"/>
<feBlend mode="normal" in="SourceGraphic" in2="effect1_backgroundBlur_2_9" result="shape"/>
</filter>
</defs>
</svg>
